<?xml version="1.0" encoding="UTF-8"?>
<svg width="427px" height="454px" viewBox="0 0 427 454" version="1.1" xmlns="http://www.w3.org/2000/svg" xmlns:xlink="http://www.w3.org/1999/xlink">
    <!-- Generator: Sketch 52.2 (67145) - http://www.bohemiancoding.com/sketch -->
    <title>user</title>
    <desc>Created with Sketch.</desc>
    <g id="Page-1" stroke="none" stroke-width="1" fill="none" fill-rule="evenodd">
        <g id="user" fill="#FFFFFF">
            <path d="M210.499999,228 C244.432182,228 273.814777,216.765752 297.822363,194.600589 C321.829949,172.439039 334,145.323007 334,113.996389 C334,82.6806046 321.829949,55.5609614 297.818451,33.3921888 C273.806953,11.234249 244.428271,0 210.499999,0 C176.563906,0 147.189135,11.234249 123.181549,33.3957997 C99.1739626,55.5573504 87,82.6769937 87,113.996389 C87,145.323007 99.1739626,172.44265 123.18546,194.6042 C147.196959,216.76214 176.575641,228 210.499999,228 Z" id="Path"></path>
            <path d="M425.965242,344.498451 C425.274101,335.263946 423.8762,325.190599 421.818398,314.553202 C419.741071,303.836261 417.066317,293.705062 413.864423,284.445248 C410.5571,274.874484 406.058828,265.423038 400.498464,256.365702 C394.727244,246.964876 387.948598,238.778926 380.342146,232.042873 C372.388171,224.995868 362.649725,219.330062 351.388427,215.197315 C340.166176,211.08626 327.729549,209.003615 314.426066,209.003615 C309.201511,209.003615 304.148765,210.988637 294.390795,216.871384 C288.385291,220.497934 281.360646,224.692149 273.519908,229.331095 C266.815453,233.286674 257.733005,236.992769 246.514659,240.348141 C235.569645,243.627582 224.456728,245.290806 213.488286,245.290806 C202.519844,245.290806 191.410831,243.627582 180.454104,240.348141 C169.247472,236.996385 160.165023,233.29029 153.468378,229.334711 C145.70183,224.739153 138.673281,220.544938 132.577967,216.867769 C122.831712,210.985021 117.77506,209 112.550506,209 C99.2431188,209 86.8103957,211.08626 75.59205,215.20093 C64.3385608,219.326446 54.596211,224.992252 46.6344261,232.046488 C39.0318782,238.786157 32.2493282,246.968492 26.4859176,256.365702 C20.9294585,265.423038 16.4311868,274.870868 13.119959,284.448864 C9.92196878,293.708678 7.24721547,303.836261 5.16988862,314.553202 C3.11208527,325.176137 1.71418538,335.2531 1.02304493,344.509298 C0.343617975,353.57748 0,362.989154 0,372.494835 C0,397.233471 8.49283088,417.260847 25.2403022,432.030992 C41.780822,446.605889 63.6669439,454 90.2817179,454 L336.718282,454 C363.333056,454 385.211369,446.609504 401.755793,432.030992 C418.50717,417.271695 427,397.240703 427,372.491219 C426.996096,362.942149 426.648573,353.523244 425.965242,344.498451 Z" id="Path"></path>
        </g>
    </g>
</svg>